<?xml version="1.0" encoding="UTF-8"?>
<!DOCTYPE svg PUBLIC "-//W3C//DTD SVG 1.1//EN" "http://www.w3.org/Graphics/SVG/1.1/DTD/svg11.dtd">
<!-- Creator: CorelDRAW X8 -->
<svg xmlns="http://www.w3.org/2000/svg" xml:space="preserve" width="8in" height="4in" version="1.1" style="shape-rendering:geometricPrecision; text-rendering:geometricPrecision; image-rendering:optimizeQuality; fill-rule:evenodd; clip-rule:evenodd"
viewBox="0 0 9739 4869"
 xmlns:xlink="http://www.w3.org/1999/xlink">
 <defs>
  <style type="text/css">
   <![CDATA[
    .fil0 {fill:none}
    .fil1 {fill:#D23321}
    .fil2 {fill:#D23321;fill-rule:nonzero}
   ]]>
  </style>
 </defs>
 <g id="Layer_x0020_1">
  <metadata id="CorelCorpID_0Corel-Layer"/>
  <rect class="fil0" width="9739" height="4869"/>
  <g id="_1410962973984">
   <path class="fil1" d="M1330 1734c0,409 175,662 387,934 19,25 37,50 56,76 20,28 36,49 53,78 80,131 118,231 48,396 -7,-4 -3,-1 -8,-6l-46 -50c-10,-11 -16,-18 -27,-28 -10,-9 -18,-19 -29,-28 -37,-32 -79,-62 -131,-87 -41,-19 -138,-51 -164,-1 -27,53 61,122 73,143 -117,-16 -328,-103 -411,-182 -113,-107 -184,-234 -204,-397l19 29c6,12 9,18 17,30 12,19 26,41 39,57 8,9 14,17 20,24 73,84 192,175 304,212l-92 -90c-6,-7 -7,-11 -14,-18 -44,-49 -78,-100 -114,-165 -56,-104 -103,-262 -97,-399 10,22 15,53 25,78 10,27 20,48 32,72 24,47 53,91 83,128 79,99 94,110 176,186 15,13 11,17 31,26 -23,-41 -59,-84 -88,-144 -142,-286 -147,-435 -132,-726 25,83 45,154 72,233 62,181 171,405 277,567 7,11 28,37 31,44l-80 -179c-88,-205 -157,-417 -157,-650 0,-101 31,-306 70,-383 -3,72 -19,142 -19,220z"/>
   <path class="fil1" d="M1842 3251c37,-24 85,-39 123,-85 33,-40 57,-84 55,-156 -3,-100 -67,-235 -109,-309 -26,-45 -49,-92 -76,-135 -38,-62 -173,-299 -164,-381 3,-30 13,-63 35,-88 26,-30 63,-47 102,-50 56,-5 99,21 128,66 6,9 12,20 15,30 5,11 2,16 -7,23 11,15 27,32 39,46 13,15 39,37 12,49 -3,1 -86,-53 -91,-56 -14,-9 -9,-6 -25,-8 -10,-2 -17,-4 -26,-5 -157,-31 -82,145 -29,226 57,88 115,164 173,249 51,76 116,176 142,279 51,199 -108,262 -125,284 43,1 228,14 243,55 -20,30 -77,23 -111,40 41,-1 92,-9 132,-17 33,-7 95,-12 97,-48 -22,-15 -47,-21 -76,-30 14,0 147,17 143,47 -9,71 -695,78 -773,78 -117,0 -732,-6 -772,-78 5,-21 36,-28 61,-34 26,-5 55,-12 82,-13 -28,9 -139,33 -31,66 46,13 131,27 177,29l-59 -15c-23,-7 -35,-10 -46,-25 12,-31 100,-40 137,-45 22,-2 157,-12 162,-14 -45,3 -221,15 -237,51 57,74 998,73 1053,0 -7,-16 -21,-18 -41,-23 -30,-8 -139,-29 -158,-17 30,14 93,4 109,32 -46,63 -825,63 -874,0 22,-34 188,-35 237,-38 -28,0 -152,8 -162,34 75,47 696,46 724,-4 -41,-50 -99,36 -189,-10z"/>
   <path class="fil1" d="M1399 3198c-61,5 -171,-9 -220,-32 -51,-25 -96,-71 -102,-146l68 52c72,48 149,87 231,115 4,2 8,3 12,5 1,0 2,1 3,1 1,1 2,1 2,2l6 3z"/>
   <path class="fil2" d="M2790 1599l-76 498c-6,42 -15,111 -71,111 -25,0 -50,-34 -66,-64l-128 119c33,69 89,111 171,111 161,0 257,-106 281,-265l78 -510 -189 0zm532 224c-159,0 -313,99 -340,275 -27,175 98,273 256,273 159,0 313,-99 340,-273 27,-176 -97,-275 -256,-275zm-24 158c71,0 104,53 95,117 -10,65 -59,115 -131,115 -71,0 -105,-50 -95,-115 10,-64 59,-117 131,-117zm447 -458l-127 831 175 0 41 -263c9,-61 40,-123 110,-123 70,0 69,62 60,123l-40 263 176 0 48 -314c19,-131 -28,-217 -153,-217 -69,0 -122,26 -171,82l-2 0 58 -382 -175 0zm764 317l-175 0 -79 514 176 0 40 -266c10,-65 39,-120 110,-120 87,0 66,87 59,136l-38 250 175 0 49 -318c19,-126 -21,-213 -154,-213 -68,0 -121,21 -171,83l-2 0 10 -66zm846 16c-48,-24 -102,-33 -158,-33 -108,0 -227,56 -246,182 -14,93 37,121 89,136 53,15 108,17 102,57 -5,28 -39,39 -61,39 -44,0 -100,-26 -131,-52l-83 127c54,38 120,59 190,59 115,0 242,-56 263,-191 14,-95 -41,-136 -121,-153 -23,-5 -77,-10 -72,-45 4,-26 40,-35 60,-35 30,0 66,10 91,25l77 -116zm375 -33c-159,0 -313,99 -340,275 -27,175 98,273 257,273 159,0 313,-99 339,-273 27,-176 -97,-275 -256,-275zm-24 158c71,0 105,53 95,117 -10,65 -59,115 -130,115 -72,0 -106,-50 -96,-115 10,-64 59,-117 131,-117zm574 -141l-175 0 -79 514 176 0 40 -266c10,-65 39,-120 110,-120 87,0 66,87 59,136l-39 250 176 0 48 -318c20,-126 -20,-213 -153,-213 -69,0 -121,21 -171,83l-2 0 10 -66z"/>
   <path class="fil2" d="M2833 3338l189 0 38 -250 107 0c165,0 270,-79 297,-257 26,-173 -70,-248 -226,-248l-290 0 -115 755zm280 -597l32 0c73,0 136,1 121,96 -14,92 -81,92 -150,92l-32 0 29 -188zm429 83l-47 310c-26,169 81,221 230,221 148,0 271,-52 296,-221l48 -310 -176 0 -42 275c-9,65 -32,111 -104,111 -73,0 -81,-46 -71,-111l42 -275 -176 0zm555 514l175 0 9 -57 2 0c24,51 80,74 138,74 148,0 269,-126 292,-275 22,-147 -60,-273 -207,-273 -56,0 -119,22 -163,67l56 -367 -176 0 -126 831zm339 -373c71,0 105,53 95,116 -10,66 -59,116 -130,116 -72,0 -106,-50 -96,-116 10,-63 60,-116 131,-116zm626 -458l-175 0 -127 831 176 0 126 -831zm243 317l-175 0 -79 514 176 0 78 -514zm-42 -299c-54,0 -105,46 -114,102 -8,56 29,102 83,102 54,0 105,-46 114,-102 9,-56 -29,-102 -83,-102zm513 312c-32,-20 -71,-30 -111,-30 -156,0 -294,114 -320,279 -23,156 82,269 228,269 43,0 87,-9 128,-29l24 -154c-27,22 -62,35 -93,35 -73,0 -116,-52 -105,-127 11,-71 73,-125 140,-125 34,0 62,16 85,36l24 -154zm348 128c71,0 105,53 95,116 -10,66 -59,116 -131,116 -71,0 -105,-50 -95,-116 10,-63 59,-116 131,-116zm304 -141l-176 0 -7 50c-30,-45 -86,-67 -143,-67 -147,0 -267,126 -290,273 -22,148 61,275 208,275 58,0 122,-23 161,-74l2 0 -9 57 176 0 78 -514zm286 150l99 0 23 -150 -100 0 24 -154 -175 0 -24 154 -57 0 -23 150 57 0 -55 364 175 0 56 -364zm353 -150l-175 0 -79 514 176 0 78 -514zm-42 -299c-54,0 -105,46 -114,102 -8,56 29,102 83,102 54,0 105,-46 114,-102 9,-56 -29,-102 -83,-102zm422 282c-159,0 -313,99 -340,274 -27,176 98,274 257,274 159,0 313,-99 339,-274 27,-175 -97,-274 -256,-274zm-24 158c71,0 105,53 95,116 -10,66 -59,116 -130,116 -72,0 -106,-50 -96,-116 10,-63 59,-116 131,-116zm574 -141l-175 0 -79 514 176 0 40 -267c10,-64 39,-119 110,-119 87,0 66,86 59,136l-39 250 176 0 48 -318c20,-126 -20,-213 -153,-213 -69,0 -121,21 -171,83l-2 0 10 -66zm845 16c-47,-24 -102,-33 -157,-33 -108,0 -227,56 -246,182 -14,92 36,121 89,136 53,15 107,17 101,57 -4,28 -39,39 -61,39 -43,0 -99,-26 -131,-52l-83 127c54,38 121,59 191,59 115,0 242,-56 262,-191 15,-96 -41,-136 -120,-153 -23,-5 -78,-10 -72,-45 4,-26 40,-35 60,-35 30,0 66,10 91,25l76 -116z"/>
  </g>
 </g>
</svg>
